<?xml version="1.0" encoding="utf-8"?>
<!-- Generator: Adobe Illustrator 27.8.1, SVG Export Plug-In . SVG Version: 6.00 Build 0)  -->
<svg version="1.1" id="Layer_1" xmlns="http://www.w3.org/2000/svg" xmlns:xlink="http://www.w3.org/1999/xlink" x="0px" y="0px"
	 viewBox="0 0 184 42" style="enable-background:new 0 0 184 42;" xml:space="preserve">
<style type="text/css">
	.st0{fill:#F42434;}
</style>
<path class="st0" d="M54.6,25.4L45.9,10h-5.7v21.3h4.4V17.6l8.2,13.7h4l7.9-14v14H69V10h-5.7L54.6,25.4z"/>
<path class="st0" d="M138.5,25.5L123.8,10h-6.3v21.3h4.8V16.1l14.3,15.2h6.5V10h-4.8V25.5z"/>
<path class="st0" d="M13.2,9.7L0,31.3h5.6l1.9-3.6h16l2.1,3.6h5.8L18.1,9.7L13.2,9.7L13.2,9.7z M10.3,23.1l5.2-8.5l5.3,8.5H10.3z"/>
<path class="st0" d="M170.4,9.7h-4.9l-13.2,21.6h5.6l1.9-3.6h16l2.1,3.6h5.8L170.4,9.7z M162.5,23.1l5.2-8.5l5.3,8.5H162.5z"/>
<path class="st0" d="M90.8,9.7L77.6,31.3h5.6l1.9-3.6h16l2.1,3.6h5.8L95.7,9.7H90.8z M87.9,23.1l5.2-8.5l5.3,8.5H87.9z"/>
<path class="st0" d="M180.4,8.7c-1.7,0-3.1,1.4-3.1,3.1v0c0,1.7,1.4,3.1,3.1,3.1c1.7,0,3.1-1.4,3.1-3.1v0
	C183.5,10.1,182.1,8.7,180.4,8.7z M180.4,14.3c-1.3,0-2.4-1.1-2.4-2.4v0c0-1.4,1.1-2.4,2.4-2.4c1.3,0,2.4,1.1,2.4,2.4v0
	C182.8,13.2,181.7,14.3,180.4,14.3z"/>
<path class="st0" d="M181.8,11.3L181.8,11.3c0-0.3-0.1-0.5-0.3-0.7c-0.2-0.2-0.5-0.3-1-0.3h-1.4v3h0.8v-0.9h0.4h0l0.6,0.9h1l-0.7-1
	C181.6,12.1,181.8,11.8,181.8,11.3z M181,11.3c0,0.2-0.2,0.3-0.5,0.3H180V11h0.5C180.8,11,181,11.1,181,11.3L181,11.3z"/>
</svg>
