<?xml version="1.0" encoding="utf-8"?>
<!-- Generator: Adobe Illustrator 27.8.1, SVG Export Plug-In . SVG Version: 6.00 Build 0)  -->
<svg version="1.1" id="Layer_1" xmlns="http://www.w3.org/2000/svg" xmlns:xlink="http://www.w3.org/1999/xlink" x="0px" y="0px"
	 viewBox="0 0 2500 2500" style="enable-background:new 0 0 2500 2500;" xml:space="preserve">
<style type="text/css">
	.st0{fill-rule:evenodd;clip-rule:evenodd;fill:#FFFFFF;}
	.st1{fill-rule:evenodd;clip-rule:evenodd;fill:#ED1C24;}
</style>
<g>
	<path class="st0" d="M0,91.6h2500v2500H0V91.6z"/>
	<path class="st1" d="M2432.3,1460.8c-16.6,0-30.7,12.8-30.7,30.2c0,17.5,14.1,30.3,30.7,30.3c16.5,0,30.5-12.8,30.5-30.3
		C2462.8,1473.6,2448.8,1460.8,2432.3,1460.8z M2432.3,1516.2c-13.9,0-24.6-10.7-24.6-25.3c0-14.3,10.8-25.1,24.6-25.1
		c13.7,0,24.5,10.8,24.5,25.1C2456.8,1505.5,2446,1516.2,2432.3,1516.2z M363.4,1324h61.7l53.1-149.4H98L43.6,1324h60.5
		c22.2-58.6,30.9-92,92-85.8l-77.2,214.2H58.4l-22.2,65.4h258l23.5-65.4h-60.5l77.2-214.2C391.8,1233.8,381.3,1271.5,363.4,1324
		L363.4,1324z M1854.3,1162.8c-137.6,0-184,55.8-204.3,111.7l-64.2,177.8h-35.8l-23.5,65.4h150.6l24.7-65.4H1666l19.7-54.3h93.8
		l-19.7,54.3h-37.1l-23.4,65.4h211.1l23.5-65.4h-35.8l56.8-161.7C1966,1263.4,1984.5,1162.8,1854.3,1162.8L1854.3,1162.8z
		 M1821.7,1284.1l-19.8,51.9h-94.5l10.5-29.6c9.9-29,33.9-68.5,72.2-68.5S1832.8,1255.7,1821.7,1284.1L1821.7,1284.1z
		 M2412.3,1273.3c24.7-66.7-6.2-108.6-55.6-108.6c-64.2,0-96.9,17.3-126.5,37.7l10.5-27.8H2058l-23.5,65.4h44.4l-76.5,212.3h-37
		l-24.7,65.4h212.4l24.7-65.4h-37l57.4-164.2c17.3-27.2,43.9-34.6,59.9-34.6c16.1,0,17.3,17.3,8.6,39.5l-80.3,224.7h180.3l23.5-65.4
		h-42L2412.3,1273.3z"/>
	<path class="st1" d="M2437.2,1493.1c5.1-0.6,9-3.4,9-9.6c0-6.9-4.1-9.9-12.3-9.9h-13.3v34.9h5.3v-15.1h6.1l9.2,15.1h5.9
		L2437.2,1493.1L2437.2,1493.1z M2425.9,1488.8V1478h7.2c3.7,0,7.6,0.8,7.6,5.1c0,5.4-4,5.7-8.5,5.7H2425.9L2425.9,1488.8z
		 M1546.4,1174.6h-264.2l-23.5,65.4h42l-76.6,212.3H1176l-23.5,65.4h233.3l23.5-65.4h-46.9l19.6-54.3h101.4
		c72.8,0,124.7-54.3,144.5-109.9C1647.6,1232.6,1619.3,1174.6,1546.4,1174.6L1546.4,1174.6z M1491.1,1287.9
		c-7.4,22.2-23.5,44.5-49.4,48.1h-37l-0.3,0.4l34.8-96.7h34.6C1496.1,1239.7,1498.5,1265.7,1491.1,1287.9L1491.1,1287.9z
		 M1156.1,1174.6H891.9l-23.5,65.4h42l-76.6,212.3h-38.3l-23.5,65.4h223.5l23.5-65.4h-46.9l19.6-54.3h101.4
		c72.8,0,124.7-54.3,144.5-109.9C1257.4,1232.6,1229,1174.6,1156.1,1174.6L1156.1,1174.6z M1100.8,1287.9
		c-7.4,22.2-23.5,44.5-49.4,48.1h-37l-0.3,0.4l34.9-96.7h34.6C1105.8,1239.7,1108.2,1265.7,1100.8,1287.9L1100.8,1287.9z
		 M683.2,1162.8c-137.6,0-184,55.8-204.3,111.7l-64.2,177.8h-35.8l-23.5,65.4h150.6l24.7-65.4H495l19.8-54.3h93.8l-19.8,54.3h-37
		l-23.5,65.4h211.1l23.5-65.4h-35.8l56.8-161.7C795,1263.4,813.5,1162.8,683.2,1162.8L683.2,1162.8z M650.6,1284.1l-19.8,51.9h-94.5
		l10.5-29.6c9.9-29,34-68.5,72.2-68.5C657.4,1237.8,661.8,1255.7,650.6,1284.1L650.6,1284.1z"/>
</g>
</svg>
