<?xml version="1.0" encoding="utf-8"?>
<!-- Generator: Adobe Illustrator 25.0.1, SVG Export Plug-In . SVG Version: 6.00 Build 0)  -->
<svg version="1.0" id="Layer_1" xmlns="http://www.w3.org/2000/svg" xmlns:xlink="http://www.w3.org/1999/xlink" x="0px" y="0px"
	 viewBox="0 0 919.8 569.3" style="enable-background:new 0 0 919.8 569.3;" xml:space="preserve">
<style type="text/css">
	.st0{fill:#DD2038;}
	.st1{fill:none;}
</style>
<path class="st0" d="M565.7,216.5h30V273l53.2-56.5h37.5L633,270.3l58.5,82.5h-37.6l-41.1-61.3l-17.2,17.4v43.9h-30L565.7,216.5z
	 M456.9,307.6c0,18.1,14.1,25.2,30.2,25.2c10.5,0,26.5-3.1,26.5-17c0-14.7-20.4-17.2-40.5-22.5c-20.2-5.3-40.7-13.2-40.7-38.8
	c0-27.9,26.4-41.2,51-41.2c28.5,0,54.6,12.4,54.6,43.9h-29c-1-16.4-12.6-20.6-26.9-20.6c-9.5,0-20.6,4-20.6,15.5
	c0,10.5,6.5,11.8,40.7,20.6c9.9,2.5,40.5,8.8,40.5,39.7c0,25-19.7,43.7-56.7,43.7c-30.2,0-58.4-14.9-58.1-48.5L456.9,307.6z
	 M337.9,300.1h35.3l-17.2-50h-0.4L337.9,300.1z M340.8,216.5h30.7l51,136.4h-31.2L381,322.5h-51l-10.7,30.4H289L340.8,216.5z
	 M232.2,217l-0.1,102c0,0,0,34.3-34,34.3v-51h-68v17h51c0,0,0,34-34.1,34H96.1v-51.3c0-34,34-34,34-34h51c17,0,17-16.8,17-16.8H96.2
	c0,0-0.2-34.2,33.8-34.2L232.2,217z"/>
<path class="st0" d="M756.7,330.9c26.9,0,37-22.9,37-45.6c0-23.9-10.1-46.8-37-46.8s-37,22.9-37,46.8
	C719.7,308,729.8,330.9,756.7,330.9 M756.7,213.2c42.2,0,67,31.5,67,72c0,39.3-24.8,70.9-67,70.9s-67-31.5-67-70.9
	C689.7,244.8,714.5,213.2,756.7,213.2"/>
<rect x="74.8" y="187.3" class="st1" width="770.2" height="194.7"/>
</svg>
