<?xml version="1.0" encoding="utf-8"?>
<!-- Generator: Adobe Illustrator 27.8.1, SVG Export Plug-In . SVG Version: 6.00 Build 0)  -->
<svg version="1.1" id="Layer_1" xmlns="http://www.w3.org/2000/svg" xmlns:xlink="http://www.w3.org/1999/xlink" x="0px" y="0px"
	 viewBox="0 0 2500 2500" style="enable-background:new 0 0 2500 2500;" xml:space="preserve">
<style type="text/css">
	.st0{fill-rule:evenodd;clip-rule:evenodd;fill:#FFFFFF;}
	.st1{fill-rule:evenodd;clip-rule:evenodd;}
</style>
<g>
	<path class="st0" d="M0,0h2500v2500H0V0z"/>
	<path class="st0" d="M273.4,1152.3l-16.4,21.9l-10.9,87.6l79.4,73.9l71.2-5.5l8.2-52l2.7-87.6l-30.1-41.1l-27.4,2.7H273.4z"/>
	<path class="st1" d="M2359.2,1226.2c-19.2,0-27.4,8.2-27.4,27.4h27.4v38.3h-27.4v131.4h-71.2v-128.7h-19.2v-41.1h19.2
		c0-24.6,5.5-43.8,19.2-57.5c21.9-16.4,52-13.7,79.4-10.9L2359.2,1226.2L2359.2,1226.2z M1817.2,1220.7
		c13.7,16.4,21.9,38.3,24.6,57.5H1768c-5.5-21.9-21.9-38.3-41.1-38.3c-24.6,0-43.8,30.1-43.8,65.7c0,38.3,19.2,65.7,43.8,65.7
		c19.2,0,35.6-13.7,41.1-35.6h73.9c0,30.1-19.2,60.2-49.3,79.4c-41.1,24.6-109.5,19.2-145.1-11c-41.1-32.8-49.3-90.3-35.6-139.6
		c10.9-38.3,46.5-71.2,84.9-76.6C1740.6,1182.4,1787.1,1187.9,1817.2,1220.7L1817.2,1220.7z M640.2,1190.6l41.1,139.6l41.1-139.6
		h90.3v232.7H747v-131.4l-38.3,131.4h-54.8l-38.3-131.4v131.4h-68.4v-232.7H640.2L640.2,1190.6z M1918.5,1270
		c13.7-11,32.9-21.9,52-21.9c24.6,0,49.3,10.9,57.5,35.6c5.5,19.2,5.5,93.1,5.5,139.6h-68.4v-84.9c0-10.9,0-19.2-5.5-27.4
		c-5.5-10.9-24.6-10.9-32.8-2.7c-8.2,5.5-8.2,19.2-8.2,35.6v79.4h-71.2v-232.7h71.2L1918.5,1270L1918.5,1270L1918.5,1270z
		 M1505.2,1283.7c8.2,10.9,10.9,21.9,13.7,35.6h-68.4c-5.5-13.7-13.7-24.6-24.6-24.6c-16.4,0-30.1,21.9-30.1,43.8
		c0,24.6,13.7,43.8,30.1,43.8c11,0,19.2-8.2,24.6-24.6h68.4c0,24.6-16.4,52-41.1,60.2c-32.8,13.7-82.1,13.7-109.5-2.7
		c-30.1-16.4-41.1-46.5-41.1-76.7c0-32.9,16.4-63,46.5-79.4C1414.9,1242.6,1475.1,1242.6,1505.2,1283.7L1505.2,1283.7z
		 M1242.4,1253.6h68.4v169.7h-68.4V1253.6z M1242.4,1185.1h68.4v49.3h-68.4V1185.1z M2424.9,1267.3c19.2,0,38.3-16.4,38.3-38.3
		c0-21.9-19.2-38.3-38.3-38.3c-21.9,0-38.3,16.4-38.3,38.3C2386.6,1250.8,2403,1267.3,2424.9,1267.3z M2394.8,1228.9
		c0-19.2,13.7-32.9,30.1-32.9s30.1,13.7,30.1,32.9c0,16.4-13.7,30.1-30.1,30.1S2394.8,1245.4,2394.8,1228.9z M2416.7,1231.7h8.2
		l10.9,19.2h8.2l-13.7-19.2c8.2-2.7,10.9-5.5,10.9-13.7c0-8.2-5.5-10.9-13.7-10.9h-16.4v43.8h5.5L2416.7,1231.7L2416.7,1231.7z
		 M2416.7,1226.2v-13.7h8.2c5.5,0,10.9,0,10.9,5.5c0,8.2-5.5,8.2-10.9,8.2L2416.7,1226.2L2416.7,1226.2z M1100.1,1332.9
		c0-19.2,10.9-32.9,24.6-32.9c16.4,0,27.4,13.7,27.4,32.9s-10.9,35.6-27.4,35.6C1111,1368.5,1100.1,1352.1,1100.1,1332.9z
		 M1154.8,1272.7l2.7-19.2h60.2v147.8c0,16.4-2.7,32.9-10.9,46.5c-16.4,27.4-49.3,32.9-79.4,32.9c-32.9,0-82.1-5.5-90.3-49.3h71.2
		c2.7,8.2,10.9,10.9,21.9,10.9c19.2,0,21.9-27.4,21.9-41.1c-24.6,16.4-60.2,19.2-84.9,5.5c-24.6-13.7-38.3-43.8-38.3-71.2
		c2.7-32.9,10.9-63,41.1-79.4c16.4-8.2,38.3-8.2,54.8-5.5C1135.7,1256.3,1146.6,1261.8,1154.8,1272.7L1154.8,1272.7z M935.9,1382.2
		c-8.2,8.2-21.9,10.9-32.9,5.5c-5.5-5.5-8.2-13.7-2.7-19.2c11-13.7,30.1-8.2,43.8-16.4C949.5,1363,944.1,1374,935.9,1382.2z
		 M1009.8,1286.4c10.9,38.3,5.5,82.1,8.2,123.2c0,5.5,8.2,8.2,5.5,13.7H955l-5.5-13.7c-27.4,21.9-65.7,24.6-98.5,13.7
		c-10.9-5.5-19.2-16.4-21.9-27.4c-5.5-19.2-5.5-43.8,13.7-57.5c27.4-21.9,68.4-13.7,101.3-27.4c2.7-2.7,2.7-8.2,0-10.9
		c-5.5-10.9-21.9-10.9-30.1-8.2c-5.5,2.7-10.9,8.2-10.9,13.7h-65.7c-2.7-10.9,0-21.9,8.2-30.1c30.1-32.9,112.2-30.1,142.3-16.4
		C987.9,1259,1004.3,1264.5,1009.8,1286.4z M2170.4,1316.5h-54.7c0,0,0-24.6,24.6-24.6C2170.4,1291.9,2170.4,1316.5,2170.4,1316.5z
		 M2227.8,1294.6c10.9,19.2,13.7,38.3,13.7,57.5h-128.6c0,8.2,2.7,35.6,30.1,35.6c16.4,0,21.9-5.5,27.4-16.4h63
		c-2.7,21.9-19.2,38.3-38.3,46.5c-38.3,13.7-90.3,16.4-120.4-11c-24.6-19.2-32.9-49.3-27.4-79.4c0-30.1,19.2-54.7,46.5-68.4
		C2140.2,1237.1,2200.4,1248.1,2227.8,1294.6z"/>
	<path class="st1" d="M443.1,1297.4c5.5-19.2,8.2-38.3,5.5-60.2c-5.5-24.6-21.9-38.3-5.5-60.2c27.4-19.2,60.2-38.3,84.9-57.5
		c21.9,0,32.8-21.9,38.3-38.3c0-21.9-21.9,0-32.9-2.7c0-5.5,0-11-2.7-13.7l-2.7,2.7c-27.4,46.5-82.1,43.8-123.2,63
		c-19.2,2.7-41.1,10.9-57.5,2.7l8.2-16.4c2.7-10.9,21.9-24.6,16.4-38.3c-19.2,0-10.9-16.4-24.6-32.9c-8.2-10.9-24.6-16.4-16.4-30.1
		c27.4-10.9,54.7-38.3,63-68.4c5.5-24.6,8.2-63-13.7-84.8c-49.3-41.1-90.3,27.4-128.6,52c-35.6,24.6-98.5,24.6-106.8,79.4
		c0,13.7,5.5,27.4,16.4,41.1c16.4,10.9,41.1,8.2,57.5,2.7c19.2,24.6-8.2,49.3,5.5,76.6c-2.7,2.7-10.9,0-10.9,5.5
		c19.2,2.7,32.8,24.6,52,32.8c8.2,2.7,13.7,21.9,19.2,30.1c16.4,0,19.2-10.9,32.8-16.4l13.7,5.5c16.4,13.7,24.6-5.5,38.3-8.2
		c8.2,11,11,27.4,16.4,41.1c8.2,30.1,5.5,63-19.2,84.8c-24.6,10.9-57.5,8.2-76.7-8.2c-35.6-24.6-32.9-73.9-24.6-112.2l-2.7-2.7
		c-60.2-13.7-117.7-41.1-164.2-87.6c-8.2-11-8.2-32.9-27.4-35.6c-8.2,0,2.7,8.2,0,10.9c-10.9-5.5-19.2-16.4-32.9-13.7
		c-8.2,35.6,24.6,52,49.3,68.4v5.5c41.1,49.3,104,90.3,142.3,150.5c-2.7,11-5.5,21.9-10.9,32.9c-13.7,35.6-46.5,68.4-76.6,95.8
		c30.1,2.7,57.5,5.5,84.8,2.7l2.7,2.7c-5.5,24.6,2.7,52-5.5,73.9c-5.5,8.2-21.9,13.7-13.7,21.9c2.7,2.7,10.9,5.5,13.7,0
		c24.6-27.4,46.5-57.5,73.9-82.1h5.5l8.2,79.4c13.7-2.7,19.2,16.4,32.8,10.9c-2.7-10.9-13.7-16.4-13.7-27.4
		C374.7,1420.5,426.7,1365.8,443.1,1297.4L443.1,1297.4z"/>
	<path class="st0" d="M547.2,1086.6c-2.7,10.9-11,19.2-19.2,21.9c-5.5,2.7-10.9,0-16.4-2.7l13.7-16.4
		C530.7,1094.8,539,1089.3,547.2,1086.6z M347.3,1067.4c0,11,5.5,24.6-8.2,30.1c-10.9,8.2-30.1,5.5-46.5,8.2l-2.7,2.7
		c13.7,10.9,32.9,13.7,49.3,10.9c-8.2,16.4-30.1,27.4-52,27.4c-13.7-2.7-27.4-8.2-35.6-19.2c5.5-2.7,16.4-8.2,16.4-13.7
		c-10.9-2.7-35.6,8.2-35.6-13.7c5.5-10.9,19.2-10.9,24.6-16.4c2.7-5.5-5.5-5.5-10.9-5.5h-10.9c-2.7-8.2,2.7-19.2,8.2-24.6
		c10.9-16.4,27.4-24.6,46.5-24.6C314.5,1029.1,336.4,1042.8,347.3,1067.4L347.3,1067.4z"/>
	<path class="st0" d="M377.5,892.2c8.2,32.8,0,68.4-21.9,90.3c-8.2,5.5-13.7,13.7-24.6,16.4c-2.7-8.2,8.2-24.6-2.7-27.4
		c-13.7-5.5-8.2,8.2-10.9,16.4l-2.7,30.1c-27.4-5.5-60.2,0-76.6,24.6c-5.5-13.7-11-32.8-16.4-41.1c-2.7,0-8.2,0-10.9,2.7
		c2.7,5.5,5.5,13.7,5.5,21.9c-13.7,0-27.4,5.5-41.1-2.7c-8.2-5.5-13.7-16.4-13.7-24.6c2.7-49.3,54.7-41.1,84.8-63
		c38.3-13.7,60.2-63,101.3-71.2C363.8,862.1,374.7,878.6,377.5,892.2z"/>
	<path class="st1" d="M309,1067.4v2.7l-30.1,5.5c-2.7-8.2,8.2-10.9,13.7-13.7C295.3,1064.7,306.3,1059.2,309,1067.4L309,1067.4z"/>
	<path class="st0" d="M79.1,1070.2l2.7-5.5l13.7,27.4c0,2.7,0,8.2-2.7,5.5c-16.4-8.2-43.8-19.2-41.1-41.1
		C59.9,1062,68.1,1072.9,79.1,1070.2z"/>
</g>
</svg>
