<svg width="90" height="90" viewBox="0 0 90 90" fill="none" xmlns="http://www.w3.org/2000/svg">
<path d="M72.3 18.4875L64.35 10.5375C61.425 7.6125 56.6625 7.6125 53.7375 10.5375L43.125 21.15L51.075 29.1L59.025 21.15L72.3 34.425C74.4091 32.3092 75.5933 29.4437 75.5933 26.4562C75.5933 23.4688 74.4091 20.6033 72.3 18.4875ZM20.5875 51.6375C22.8 53.85 26.3625 53.85 28.5375 51.6375L37.8 42.375L29.85 34.3875L20.5875 43.65C18.375 45.8625 18.375 49.425 20.5875 51.6375Z" fill="#6C6D6F"/>
<path d="M56.4 29.1L53.7375 31.7625L51.075 34.425L39.15 22.5C36.9375 20.25 33.375 20.25 31.2 22.4625C30.6739 22.9822 30.2562 23.6012 29.9711 24.2835C29.6861 24.9659 29.5393 25.698 29.5393 26.4375C29.5393 27.177 29.6861 27.9092 29.9711 28.5915C30.2562 29.2738 30.6739 29.8928 31.2 30.4125L43.125 42.3375L40.4625 45L16.6125 68.85C13.6875 71.775 13.6875 76.5375 16.6125 79.4625C19.5375 82.3875 24.3 82.3875 27.225 79.4625L61.6875 45C62.0347 45.3472 62.4468 45.6226 62.9005 45.8105C63.3541 45.9984 63.8403 46.0951 64.3312 46.0951C64.8222 46.0951 65.3084 45.9984 65.762 45.8105C66.2156 45.6226 66.6278 45.3472 66.975 45C67.3222 44.6528 67.5976 44.2407 67.7855 43.7871C67.9734 43.3334 68.0701 42.8473 68.0701 42.3563C68.0701 41.8653 67.9734 41.3791 67.7855 40.9255C67.5976 40.4719 67.3222 40.0597 66.975 39.7125L56.4 29.1Z" fill="#6C6D6F"/>
</svg>
