<svg width="100" height="100" viewBox="0 0 100 100" fill="none" xmlns="http://www.w3.org/2000/svg">
<path fill-rule="evenodd" clip-rule="evenodd" d="M65 56C67.838 56.0009 70.6361 55.3308 73.1657 54.0442C75.6954 52.7577 77.885 50.8912 79.5558 48.5971C81.2267 46.303 82.3314 43.6464 82.7798 40.844C83.2282 38.0416 83.0076 35.1729 82.136 32.472C81.716 31.176 80.096 30.908 79.132 31.872L68.36 42.64C68.1131 42.9023 67.7931 43.0844 67.4416 43.1628C67.09 43.2413 66.723 43.2124 66.388 43.08C63.4619 41.8643 61.1353 39.5407 59.916 36.616C59.7855 36.2801 59.7576 35.913 59.8359 35.5612C59.9143 35.2094 60.0953 34.8888 60.356 34.64L71.132 23.872C72.092 22.908 71.828 21.284 70.532 20.864C67.7373 19.9618 64.7642 19.757 61.8722 20.2676C58.9802 20.7783 56.257 21.9887 53.9403 23.7935C51.6235 25.5982 49.7835 27.9424 48.5807 30.6216C47.378 33.3007 46.849 36.2335 47.04 39.164C47.26 42.656 46.528 46.396 43.84 48.636L14.92 72.732C13.7593 73.7021 12.8133 74.9033 12.1423 76.259C11.4713 77.6148 11.0899 79.0954 11.0224 80.6066C10.955 82.1178 11.203 83.6265 11.7505 85.0366C12.2981 86.4467 13.1333 87.7274 14.203 88.7971C15.2726 89.8667 16.5533 90.7019 17.9634 91.2495C19.3735 91.7971 20.8822 92.045 22.3934 91.9776C23.9047 91.9101 25.3853 91.5287 26.741 90.8577C28.0967 90.1867 29.2979 89.2407 30.268 88.08L54.364 59.16C56.604 56.472 60.344 55.74 63.836 55.96C64.22 55.9867 64.608 56 65 56ZM27 80C27 81.0609 26.5786 82.0783 25.8284 82.8285C25.0783 83.5786 24.0609 84 23 84C21.9391 84 20.9217 83.5786 20.1716 82.8285C19.4214 82.0783 19 81.0609 19 80C19 78.9392 19.4214 77.9217 20.1716 77.1716C20.9217 76.4215 21.9391 76 23 76C24.0609 76 25.0783 76.4215 25.8284 77.1716C26.5786 77.9217 27 78.9392 27 80Z" fill="#6C6D6F"/>
<path d="M65 62C65.6933 62 66.3787 61.9707 67.056 61.912L82.072 76.928C83.9476 78.8036 85.0013 81.3475 85.0013 84C85.0013 86.6525 83.9476 89.1964 82.072 91.072C80.1964 92.9476 77.6525 94.0013 75 94.0013C72.3475 94.0013 69.8036 92.9476 67.928 91.072L50.288 73.432L58.976 63.004C59.184 62.756 59.564 62.452 60.344 62.22C61.3572 61.9544 62.4083 61.8638 63.452 61.952C63.964 61.984 64.48 62 65 62ZM31 34.344L40.32 43.664C40.2282 43.7965 40.1208 43.9173 40 44.024L34.2 48.856L25.344 40H20.236C19.8649 40 19.5011 39.8967 19.1853 39.7018C18.8696 39.5068 18.6143 39.2278 18.448 38.896L11.648 25.288C11.4601 24.9129 11.3949 24.4882 11.4617 24.074C11.5284 23.6598 11.7238 23.2771 12.02 22.98L13.98 21.02C14.2766 20.7231 14.6591 20.527 15.0733 20.4596C15.4875 20.3921 15.9125 20.4566 16.288 20.644L29.896 27.444C30.229 27.6109 30.5088 27.8674 30.7039 28.1847C30.8989 28.5021 31.0015 28.8675 31 29.24V34.344Z" fill="#6C6D6F"/>
</svg>
