<svg width="34" height="38" viewBox="0 0 34 38" fill="none" xmlns="http://www.w3.org/2000/svg">
<g filter="url(#filter0_d_55_147)">
<path d="M26.1518 6.95273C25.9619 6.85464 25.7771 6.74709 25.5981 6.63047C25.0774 6.28615 24.5999 5.8805 24.176 5.42227C23.1155 4.20879 22.7194 2.97773 22.5735 2.11582H22.5793C22.4574 1.40039 22.5078 0.9375 22.5155 0.9375H17.685V19.616C17.685 19.8668 17.685 20.1146 17.6744 20.3596C17.6744 20.39 17.6715 20.4182 17.6698 20.451C17.6698 20.4645 17.6698 20.4785 17.6668 20.4926V20.5031C17.6159 21.1733 17.4011 21.8207 17.0412 22.3884C16.6814 22.956 16.1875 23.4266 15.6032 23.7586C14.9941 24.1051 14.3052 24.2868 13.6045 24.2859C11.3539 24.2859 9.52991 22.4508 9.52991 20.1844C9.52991 17.918 11.3539 16.0828 13.6045 16.0828C14.0305 16.0824 14.4539 16.1495 14.859 16.2814L14.8649 11.3631C13.6352 11.2042 12.386 11.302 11.1959 11.6501C10.0059 11.9982 8.90099 12.5892 7.95081 13.3857C7.11824 14.1091 6.41829 14.9723 5.88245 15.9363C5.67854 16.2879 4.90921 17.7006 4.81604 19.9934C4.75745 21.2947 5.14827 22.643 5.3346 23.2002V23.2119C5.45179 23.54 5.90589 24.6598 6.64593 25.6037C7.24265 26.3609 7.94768 27.0261 8.73831 27.5777V27.566L8.75003 27.5777C11.0885 29.1668 13.6813 29.0625 13.6813 29.0625C14.1301 29.0443 15.6336 29.0625 17.341 28.2533C19.2348 27.3563 20.3129 26.0197 20.3129 26.0197C21.0016 25.2211 21.5493 24.311 21.9324 23.3285C22.3696 22.1795 22.5155 20.8014 22.5155 20.2506V10.3412C22.5741 10.3764 23.3545 10.8926 23.3545 10.8926C23.3545 10.8926 24.4789 11.6133 26.2332 12.0826C27.4918 12.4166 29.1875 12.4869 29.1875 12.4869V7.6916C28.5934 7.75605 27.3869 7.56855 26.1518 6.95273Z" fill="white"/>
</g>
<defs>
<filter id="filter0_d_55_147" x="-2" y="0" width="38" height="38" filterUnits="userSpaceOnUse" color-interpolation-filters="sRGB">
<feFlood flood-opacity="0" result="BackgroundImageFix"/>
<feColorMatrix in="SourceAlpha" type="matrix" values="0 0 0 0 0 0 0 0 0 0 0 0 0 0 0 0 0 0 127 0" result="hardAlpha"/>
<feOffset dy="4"/>
<feGaussianBlur stdDeviation="2"/>
<feComposite in2="hardAlpha" operator="out"/>
<feColorMatrix type="matrix" values="0 0 0 0 0 0 0 0 0 0 0 0 0 0 0 0 0 0 0.25 0"/>
<feBlend mode="normal" in2="BackgroundImageFix" result="effect1_dropShadow_55_147"/>
<feBlend mode="normal" in="SourceGraphic" in2="effect1_dropShadow_55_147" result="shape"/>
</filter>
</defs>
</svg>
