<svg width="80" height="80" viewBox="0 0 80 80" fill="none" xmlns="http://www.w3.org/2000/svg">
<path d="M27.05 47.36C26.6733 47.6033 26.29 47.85 25.9033 48.0867C26.2644 51.7052 28.0031 55.0463 30.7595 57.4183C33.5159 59.7903 37.0789 61.0115 40.7109 60.829C44.3428 60.6465 47.7654 59.0744 50.2702 56.4381C52.775 53.8017 54.1701 50.3032 54.1667 46.6667V46.65C53.7233 46.7267 53.2667 46.8 52.82 46.8667L52.77 46.8767C52.23 46.96 51.6967 47.0433 51.15 47.14C48.8167 47.56 46.9267 47.39 45.29 46.7867C43.7667 46.2267 42.62 45.3333 41.7733 44.6767L41.6933 44.6167C40.7767 43.9033 40.1767 43.46 39.4333 43.1833C38.7567 42.9367 37.79 42.7733 36.19 43.0633C33.8433 43.4833 31.7467 44.4833 29.8067 45.6267C28.98 46.1167 28.2067 46.6133 27.45 47.1033L27.05 47.36Z" fill="#6C6D6F"/>
<path fill-rule="evenodd" clip-rule="evenodd" d="M10 33.3334C10 20.7634 10 14.4767 13.9067 10.5734C17.81 6.66669 24.0967 6.66669 36.6667 6.66669H43.3333C55.9033 6.66669 62.19 6.66669 66.0933 10.5734C70 14.4767 70 20.7634 70 33.3334V46.6667C70 59.2367 70 65.5234 66.0933 69.4267C62.19 73.3334 55.9033 73.3334 43.3333 73.3334H36.6667C24.0967 73.3334 17.81 73.3334 13.9067 69.4267C10 65.5234 10 59.2367 10 46.6667V33.3334ZM59.1667 46.6667C59.1667 45.9334 59.1267 45.2134 59.0467 44.5034L59.1133 44.46L58.81 42.9667C57.8805 38.3035 55.2514 34.1521 51.4331 31.3184C47.6149 28.4847 42.8799 27.1708 38.1474 27.6319C33.4149 28.093 29.0226 30.2961 25.8231 33.8136C22.6236 37.331 20.8453 41.9118 20.8333 46.6667C20.8333 51.75 22.8527 56.6251 26.4471 60.2196C30.0416 63.814 34.9167 65.8334 40 65.8334C45.0833 65.8334 49.9584 63.814 53.5529 60.2196C57.1473 56.6251 59.1667 51.75 59.1667 46.6667ZM26.6667 17.5C26.0036 17.5 25.3677 17.7634 24.8989 18.2323C24.4301 18.7011 24.1667 19.337 24.1667 20C24.1667 20.6631 24.4301 21.2989 24.8989 21.7678C25.3677 22.2366 26.0036 22.5 26.6667 22.5H53.3333C53.9964 22.5 54.6323 22.2366 55.1011 21.7678C55.5699 21.2989 55.8333 20.6631 55.8333 20C55.8333 19.337 55.5699 18.7011 55.1011 18.2323C54.6323 17.7634 53.9964 17.5 53.3333 17.5H26.6667Z" fill="#6C6D6F"/>
</svg>
