<svg width="80" height="70" viewBox="0 0 80 70" fill="none" xmlns="http://www.w3.org/2000/svg">
<path d="M80 43.75C80 41.3438 78 39.375 75.5556 39.375H66.6667V48.125H75.5556C78 48.125 80 46.1562 80 43.75ZM75.5556 56.875H66.6667V65.625H75.5556C78 65.625 80 63.6562 80 61.25C80 58.8437 78 56.875 75.5556 56.875ZM57.7778 35H48.8889C44 35 40 38.9375 40 43.75H35.5556C33.1111 43.75 31.1111 45.7187 31.1111 48.125V56.875C31.1111 59.2812 33.1111 61.25 35.5556 61.25H40C40 66.0625 44 70 48.8889 70H57.7778C60.2222 70 62.2222 68.0312 62.2222 65.625V39.375C62.2222 36.9688 60.2222 35 57.7778 35ZM8.88889 39.375C8.88889 34.5625 12.8889 30.625 17.7778 30.625H24.4444C33.0222 30.625 40 23.7562 40 15.3125C40 6.86875 33.0222 0 24.4444 0H8.88889C6.44444 0 4.44444 1.96875 4.44444 4.375C4.44444 6.78125 6.44444 8.75 8.88889 8.75H24.4444C28.1333 8.75 31.1111 11.6812 31.1111 15.3125C31.1111 18.9437 28.1333 21.875 24.4444 21.875H17.7778C7.95555 21.875 0 29.7062 0 39.375C0 49.0438 7.95555 56.875 17.7778 56.875H26.6667V48.125H17.7778C12.8889 48.125 8.88889 44.1875 8.88889 39.375Z" fill="#6C6D6F"/>
</svg>
