<svg width="77" height="55" viewBox="0 0 77 55" fill="none" xmlns="http://www.w3.org/2000/svg">
<path d="M72.7792 0H4.0208C1.8096 0 0 2.0112 0 4C0 5.9888 1.8096 7.9984 4.0208 7.9984H4.992V15.9984H71.9056V7.9984H72.7792C74.992 7.9984 76.8 5.9888 76.8 4C76.8 2.0112 74.992 0 72.7792 0ZM38.4 12.032C37.2896 12.032 36.3904 11.1056 36.3904 9.9648C36.3904 8.824 37.2896 7.8976 38.4 7.8976C39.512 7.8976 40.4096 8.824 40.4096 9.9648C40.4096 11.1056 39.512 12.032 38.4 12.032ZM4.992 31.9968H71.9056V19.2H4.992V31.9968ZM38.4 23.3984C39.512 23.3984 40.4096 24.3232 40.4096 25.464C40.4096 26.6064 39.512 27.5312 38.4 27.5312C37.2896 27.5312 36.3904 26.6064 36.3904 25.464C36.3888 24.3232 37.2896 23.3984 38.4 23.3984ZM4.992 43.032V52.3344C4.992 53.4704 5.1344 54.4016 6.24 54.4016H14.2784C15.384 54.4016 15.8848 53.4704 15.8848 52.3344V46.3984H61.0128V52.3344C61.0128 53.4704 61.416 54.4016 62.52 54.4016H70.56C71.6624 54.4016 71.904 53.4704 71.904 52.3344V35.2H4.992V43.032ZM38.4 38.8992C39.512 38.8992 40.4096 39.8256 40.4096 40.9648C40.4096 42.1088 39.512 43.0304 38.4 43.0304C37.2896 43.0304 36.3904 42.1088 36.3904 40.9648C36.3888 39.8272 37.2896 38.8992 38.4 38.8992Z" fill="#6C6D6F"/>
</svg>
