<svg width="80" height="80" viewBox="0 0 80 80" fill="none" xmlns="http://www.w3.org/2000/svg">
<path d="M65 20V5C65 2.23906 62.7609 0 60 0H5C2.23906 0 0 2.23906 0 5V20C0 22.7609 2.23906 25 5 25H60C62.7609 25 65 22.7609 65 20ZM70 10V30C70 32.7609 67.7609 35 65 35H40C34.4766 35 30 39.4766 30 45V50C27.2391 50 25 52.2391 25 55V75C25 77.7609 27.2391 80 30 80H40C42.7609 80 45 77.7609 45 75V55C45 52.2391 42.7609 50 40 50V45H65C73.2844 45 80 38.2844 80 30V20C80 14.4766 75.5234 10 70 10Z" fill="#6C6D6F"/>
</svg>
