<svg width="61" height="73" viewBox="0 0 61 73" fill="none" xmlns="http://www.w3.org/2000/svg">
<path d="M30.5 0.830322C38.3499 0.830322 45.8784 3.9487 51.4291 9.49944C56.9799 15.0502 60.0982 22.5786 60.0982 30.4285C60.0982 42.9357 51.3098 56.566 33.9607 71.4653C32.996 72.294 31.7661 72.7492 30.4943 72.7481C29.2226 72.7469 27.9934 72.2896 27.0302 71.4593L25.8827 70.4635C9.30162 55.9528 0.901794 42.6564 0.901794 30.4285C0.901794 22.5786 4.02017 15.0502 9.57091 9.49944C15.1217 3.9487 22.6501 0.830322 30.5 0.830322ZM30.5 19.0446C27.4808 19.0446 24.5853 20.244 22.4504 22.3789C20.3155 24.5138 19.1161 27.4093 19.1161 30.4285C19.1161 33.4477 20.3155 36.3433 22.4504 38.4782C24.5853 40.6131 27.4808 41.8125 30.5 41.8125C33.5192 41.8125 36.4148 40.6131 38.5497 38.4782C40.6846 36.3433 41.8839 33.4477 41.8839 30.4285C41.8839 27.4093 40.6846 24.5138 38.5497 22.3789C36.4148 20.244 33.5192 19.0446 30.5 19.0446Z" fill="white"/>
</svg>
