<svg width="94" height="88" viewBox="0 0 94 88" fill="none" xmlns="http://www.w3.org/2000/svg">
<path d="M93.7252 78.5774H0V83.3897H93.7252V78.5774Z" fill="url(#paint0_linear_23_3)"/>
<path d="M12.2278 85.6427V86.0958H12.9193V87.455H13.3908V86.108H14.0824V85.655H12.2278V85.6427Z" fill="url(#paint1_linear_23_3)"/>
<path d="M15.8846 85.6427V86.304H14.8158V85.6427H14.3443V87.455H14.8158V86.757H15.8846V87.455H16.3561V85.6427H15.8846Z" fill="url(#paint2_linear_23_3)"/>
<path d="M18.4936 86.0591V85.6427H16.7647V87.455H18.4936V87.0509H17.2362V86.7325H18.4097V86.3774H17.2362V86.0713H18.4936V86.0591Z" fill="url(#paint3_linear_23_3)"/>
<path d="M20.7988 85.6427H20.1596L19.3004 87.455H19.8243L19.9815 87.1244H20.9874L21.1341 87.455H21.658L20.7988 85.6427ZM20.1387 86.757L20.4844 85.9978L20.8197 86.757H20.1387Z" fill="url(#paint4_linear_23_3)"/>
<path d="M23.6697 85.7774C23.5754 85.6917 23.4182 85.6427 23.1877 85.6427H21.9304V87.455H22.4019V87.0019H23.2611C23.4811 87.0019 23.6278 86.9529 23.7011 86.8427C23.7745 86.7448 23.8059 86.5611 23.8059 86.304C23.8059 86.0468 23.764 85.8754 23.6697 85.7774ZM23.2715 86.5244C23.2401 86.5489 23.1668 86.5733 23.0829 86.5733H22.4019V86.0958H23.0829C23.1772 86.0958 23.2401 86.108 23.282 86.1448C23.3239 86.1815 23.3344 86.2427 23.3344 86.3407C23.3344 86.4387 23.3134 86.4999 23.2715 86.5244Z" fill="url(#paint5_linear_23_3)"/>
<path d="M25.8805 85.7774C25.7862 85.6917 25.629 85.6427 25.3985 85.6427H24.1412V87.455H24.6127V87.0019H25.4719C25.6919 87.0019 25.8386 86.9529 25.9119 86.8427C25.9853 86.7448 26.0167 86.5611 26.0167 86.304C26.0167 86.0468 25.9748 85.8754 25.8805 85.7774ZM25.4928 86.5244C25.4509 86.5489 25.388 86.5733 25.3042 86.5733H24.6232V86.0958H25.3042C25.3985 86.0958 25.4614 86.108 25.5033 86.1448C25.5452 86.1815 25.5557 86.2427 25.5557 86.3407C25.5557 86.4387 25.5243 86.4999 25.4928 86.5244Z" fill="url(#paint6_linear_23_3)"/>
<path d="M26.8236 87.0019V85.6427H26.3521V87.455H27.8923V87.0019H26.8236Z" fill="url(#paint7_linear_23_3)"/>
<path d="M28.1542 85.6427V87.455H28.6257V85.6427H28.1542Z" fill="url(#paint8_linear_23_3)"/>
<path d="M30.4175 85.6427H29.7783L28.9191 87.455H29.443L29.6002 87.1244H30.6061L30.7528 87.455H31.2767L30.4175 85.6427ZM29.7574 86.757L30.1031 85.9978L30.4384 86.757H29.7574Z" fill="url(#paint9_linear_23_3)"/>
<path d="M33.2256 85.6427V87.0019L32.293 85.6427H31.5386V87.455H31.9787V86.0958L32.9112 87.455H33.6657V85.6427H33.2256Z" fill="url(#paint10_linear_23_3)"/>
<path d="M36.0232 86.7693H35.5621C35.5621 86.8795 35.5412 86.9529 35.4993 86.9897C35.4573 87.0142 35.3945 87.0387 35.3002 87.0387H35.0592H34.8706C34.7134 87.0387 34.6086 87.0142 34.5772 86.9529C34.5353 86.8917 34.5248 86.7693 34.5248 86.5611C34.5248 86.3529 34.5353 86.2427 34.5772 86.1815C34.6086 86.1203 34.6925 86.0836 34.8392 86.0836H35.0801H35.2059H35.3421C35.4154 86.0836 35.4783 86.0958 35.5097 86.1203C35.5412 86.1448 35.5621 86.206 35.5621 86.2795H36.0232C36.0232 86.0958 36.0022 85.9489 35.9498 85.8387C35.8974 85.7285 35.8136 85.6672 35.6983 85.655C35.5831 85.6427 35.4783 85.6305 35.3945 85.6305C35.3107 85.6305 35.2059 85.6305 35.0801 85.6305L34.6401 85.6427C34.4096 85.6427 34.2629 85.7162 34.179 85.8509C34.1057 85.9856 34.0638 86.206 34.0638 86.4999L34.0743 86.8795C34.0743 87.0754 34.1162 87.2223 34.2105 87.3203C34.3048 87.4183 34.5039 87.4672 34.8077 87.4672H35.1011L35.4573 87.455C35.6879 87.455 35.845 87.4183 35.9184 87.3325C35.9917 87.2468 36.0336 87.0876 36.0336 86.8305L36.0232 86.7693Z" fill="url(#paint11_linear_23_3)"/>
<path d="M38.1188 86.0591V85.6427H36.3899V87.455H38.1188V87.0509H36.8614V86.7325H38.0349V86.3774H36.8614V86.0713H38.1188V86.0591Z" fill="url(#paint12_linear_23_3)"/>
<path d="M40.7802 86.0591V85.6427H39.0513V87.455H40.7802V87.0509H39.5228V86.7325H40.6964V86.3774H39.5228V86.0713H40.7802V86.0591Z" fill="url(#paint13_linear_23_3)"/>
<path d="M42.4671 86.5366L43.2635 85.655H42.6557L42.1633 86.1938L41.6603 85.655H41.0317L41.8385 86.5366L40.9897 87.455H41.6289L42.1528 86.8795L42.6767 87.455H43.3263L42.4671 86.5366Z" fill="url(#paint14_linear_23_3)"/>
<path d="M45.3276 85.7774C45.2333 85.6917 45.0761 85.6427 44.8351 85.6427H43.5778V87.455H44.0493V87.0019H44.9085C45.139 87.0019 45.2857 86.9529 45.3485 86.8427C45.4219 86.7448 45.4533 86.5611 45.4533 86.304C45.4638 86.0468 45.4219 85.8754 45.3276 85.7774ZM44.9399 86.5244C44.9085 86.5489 44.8351 86.5733 44.7513 86.5733H44.0702V86.0958H44.7513C44.8456 86.0958 44.9085 86.108 44.9504 86.1448C44.9818 86.1815 45.0028 86.2427 45.0028 86.3407C45.0028 86.4387 44.9713 86.4999 44.9399 86.5244Z" fill="url(#paint15_linear_23_3)"/>
<path d="M47.528 86.0591V85.6427H45.7991V87.455H47.528V87.0509H46.2706V86.7325H47.4442V86.3774H46.2706V86.0713H47.528V86.0591Z" fill="url(#paint16_linear_23_3)"/>
<path d="M49.7807 86.5856C49.8017 86.5489 49.8226 86.4877 49.8226 86.4387C49.8226 86.3897 49.8331 86.3162 49.8331 86.2305C49.8331 86.0101 49.7912 85.8632 49.7178 85.7774C49.6445 85.6917 49.5083 85.655 49.3197 85.655H47.8737V87.455H48.3452V86.9897H49.1311C49.2359 86.9897 49.2987 87.0142 49.3197 87.0632C49.3302 87.1121 49.3406 87.1856 49.3406 87.2713V87.4428H49.8226V87.0999C49.8226 86.9774 49.8017 86.8917 49.7493 86.855C49.6969 86.8183 49.6235 86.7693 49.5083 86.757C49.6026 86.7203 49.6759 86.6958 49.7074 86.6713C49.7283 86.6591 49.7597 86.6224 49.7807 86.5856ZM49.3302 86.5121C49.3092 86.5489 49.2359 86.5611 49.1311 86.5611H48.3557V86.0958H49.1416C49.173 86.0958 49.1939 86.0958 49.2149 86.0958C49.2359 86.0958 49.2568 86.1081 49.2882 86.1203C49.3197 86.1325 49.3406 86.1448 49.3511 86.1815C49.3616 86.2183 49.3616 86.255 49.3616 86.3162C49.3616 86.4142 49.3511 86.4754 49.3302 86.5121Z" fill="url(#paint17_linear_23_3)"/>
<path d="M50.0846 85.6427V86.0958H50.7761V87.455H51.2476V86.108H51.9392V85.655H50.0846V85.6427Z" fill="url(#paint18_linear_23_3)"/>
<path d="M53.9824 86.4509C53.8881 86.3774 53.7519 86.3407 53.5423 86.3407H53.228H52.9136H52.8612C52.7879 86.3407 52.7355 86.3284 52.7041 86.304C52.6726 86.2795 52.6412 86.2427 52.6412 86.1693C52.6412 86.1203 52.6622 86.0835 52.6936 86.0713C52.725 86.0591 52.7669 86.0468 52.8193 86.0468L53.1756 86.0346H53.4061C53.4585 86.0346 53.5109 86.0468 53.5423 86.0713C53.5737 86.0958 53.5947 86.1448 53.5947 86.206H54.0557C54.0557 86.108 54.0557 86.0468 54.0452 85.9856C54.0348 85.9366 54.0138 85.8754 53.9824 85.8142C53.9509 85.7529 53.8881 85.704 53.8147 85.6795C53.7309 85.655 53.6261 85.6427 53.5004 85.6427H53.1651C53.1127 85.6427 52.9975 85.6427 52.8403 85.655C52.6831 85.655 52.5469 85.6795 52.4421 85.704C52.3373 85.7284 52.2745 85.7897 52.2326 85.8754C52.1907 85.9611 52.1802 86.0713 52.1802 86.2305C52.1802 86.4142 52.2116 86.5366 52.2745 86.6223C52.3373 86.708 52.4316 86.7448 52.5783 86.7448L53.3537 86.7693H53.427C53.5109 86.7693 53.5737 86.7815 53.6052 86.8182C53.6366 86.8427 53.6471 86.8795 53.6471 86.9407C53.6471 86.9897 53.6366 87.0386 53.6052 87.0631C53.5842 87.0876 53.5214 87.0999 53.4375 87.0999L53.1232 87.1121H52.9031C52.8298 87.1121 52.7669 87.0999 52.725 87.0876C52.6831 87.0631 52.6622 87.0264 52.6622 86.9529V86.9284H52.2011V87.0386C52.2011 87.2346 52.243 87.357 52.3164 87.4182C52.4002 87.4795 52.5155 87.5162 52.6831 87.5162L52.9975 87.5284L53.6052 87.504C53.7938 87.504 53.93 87.4672 54.0033 87.3815C54.0767 87.2958 54.1291 87.1611 54.1291 86.9407C54.1291 86.7203 54.0767 86.5244 53.9824 86.4509Z" fill="url(#paint19_linear_23_3)"/>
<path d="M56.56 85.6427L56.0361 86.3897L55.5122 85.6427H54.9149L55.8055 86.8305V87.4672H56.277V86.8305L57.1467 85.6427H56.56Z" fill="url(#paint20_linear_23_3)"/>
<path d="M59.3471 85.7897C59.2423 85.6795 59.0537 85.6305 58.7813 85.6305H58.4041L58.0688 85.6427C57.7649 85.6427 57.5763 85.704 57.4925 85.8142C57.4087 85.9244 57.3668 86.1693 57.3668 86.5366V86.8672C57.3668 87.0754 57.4191 87.2346 57.5134 87.3325C57.6077 87.4305 57.7544 87.4795 57.9326 87.4795L58.2574 87.4917H58.4041L58.7603 87.4795C59.0851 87.4795 59.2947 87.4182 59.368 87.2836C59.4519 87.1611 59.4938 86.904 59.4938 86.5244V86.4387C59.4938 86.108 59.4414 85.8999 59.3471 85.7897ZM59.0118 86.7325C59.0118 86.8672 58.9804 86.9529 58.928 86.9774C58.8651 87.0142 58.7708 87.0264 58.6451 87.0264H58.4041H58.1526C58.0164 87.0264 57.943 87.0019 57.9011 86.9407C57.8697 86.8795 57.8487 86.7693 57.8487 86.5978V86.4754C57.8487 86.4142 57.8487 86.3529 57.8592 86.2672C57.8697 86.1815 57.9011 86.1325 57.9535 86.108C58.0059 86.0836 58.0897 86.0713 58.1945 86.0713H58.666C58.7289 86.0713 58.7813 86.0713 58.8337 86.0836C58.8861 86.0958 58.928 86.108 58.9489 86.1448C58.9699 86.1693 58.9908 86.2183 59.0013 86.2795C59.0118 86.3407 59.0118 86.4142 59.0118 86.4876V86.7325Z" fill="url(#paint21_linear_23_3)"/>
<path d="M61.3798 85.655V86.6835C61.3798 86.8305 61.3588 86.9162 61.3274 86.9652C61.296 87.0142 61.2121 87.0386 61.0759 87.0386H60.8768H60.6673C60.5206 87.0386 60.4263 87.0142 60.3844 86.9529C60.3425 86.904 60.332 86.7815 60.332 86.5978V85.6427H59.8605V86.757C59.8605 86.9774 59.8919 87.1366 59.9653 87.2468C60.0281 87.3448 60.1224 87.4182 60.2272 87.4427C60.332 87.4672 60.4892 87.4795 60.6987 87.4795H61.0864C61.3483 87.4795 61.5474 87.4305 61.6732 87.3448C61.7989 87.2591 61.8618 87.0754 61.8618 86.7815V85.6427L61.3798 85.655Z" fill="url(#paint22_linear_23_3)"/>
<path d="M64.7956 86.7693H64.3346C64.3346 86.8795 64.3136 86.9529 64.2717 86.9897C64.2298 87.0142 64.167 87.0387 64.0727 87.0387H63.8317H63.6431C63.4859 87.0387 63.3811 87.0142 63.3497 86.9529C63.3182 86.8917 63.2973 86.7693 63.2973 86.5611C63.2973 86.3529 63.3182 86.2427 63.3497 86.1815C63.3811 86.1203 63.4649 86.0836 63.6116 86.0836H63.8526H63.9784H64.1146C64.1879 86.0836 64.2508 86.0958 64.2822 86.1203C64.3137 86.1448 64.3346 86.206 64.3346 86.2795H64.7956C64.7956 86.0958 64.7747 85.9489 64.7223 85.8387C64.6699 85.7285 64.5861 85.6672 64.4708 85.655C64.3556 85.6427 64.2508 85.6305 64.167 85.6305C64.0831 85.6305 63.9784 85.6305 63.8526 85.6305L63.4126 85.6427C63.182 85.6427 63.0353 85.7162 62.962 85.8509C62.8886 85.9856 62.8467 86.206 62.8467 86.4999L62.8572 86.8795C62.8572 87.0754 62.8991 87.2223 62.9934 87.3203C63.0773 87.4183 63.2868 87.4672 63.5907 87.4672H63.8841L64.2403 87.455C64.4708 87.455 64.628 87.4183 64.7013 87.3325C64.7747 87.2468 64.8166 87.0876 64.8166 86.8305L64.7956 86.7693Z" fill="url(#paint23_linear_23_3)"/>
<path d="M66.5454 85.6427H65.9063L65.0366 87.455H65.5605L65.7177 87.1244H66.7236L66.8703 87.455H67.3942L66.5454 85.6427ZM65.8853 86.757L66.2206 85.9978L66.5559 86.757H65.8853Z" fill="url(#paint24_linear_23_3)"/>
<path d="M69.3535 85.6427V87.0019L68.421 85.6427H67.6666V87.455H68.1066V86.0958L69.0392 87.455H69.7936V85.6427H69.3535Z" fill="url(#paint25_linear_23_3)"/>
<path d="M70.6423 85.6427V86.0958H71.3339V87.455H71.8054V86.108H72.4969V85.655H70.6423V85.6427Z" fill="url(#paint26_linear_23_3)"/>
<path d="M74.6658 86.5856C74.6868 86.5489 74.7077 86.4877 74.7182 86.4387C74.7287 86.3775 74.7287 86.3162 74.7287 86.2305C74.7287 86.0101 74.6868 85.8632 74.603 85.7774C74.5191 85.6917 74.3934 85.655 74.2048 85.655H72.7589V87.455H73.2304V86.9897H74.0162C74.121 86.9897 74.1839 87.0142 74.2048 87.0632C74.2153 87.1121 74.2258 87.1856 74.2258 87.2713V87.4428H74.7078V87.0999C74.7078 86.9774 74.6868 86.8917 74.6344 86.855C74.582 86.806 74.5087 86.7693 74.3934 86.757C74.4982 86.7203 74.5611 86.6958 74.5925 86.6713C74.6134 86.6591 74.6449 86.6224 74.6658 86.5856ZM74.2153 86.5121C74.1943 86.5489 74.121 86.5611 74.0162 86.5611H73.2408V86.0958H74.0267C74.0581 86.0958 74.0791 86.0958 74.1 86.0958C74.121 86.0958 74.1419 86.1081 74.1734 86.1203C74.2048 86.1325 74.2258 86.1448 74.2362 86.1815C74.2467 86.206 74.2572 86.255 74.2572 86.3162C74.2467 86.4142 74.2362 86.4754 74.2153 86.5121Z" fill="url(#paint27_linear_23_3)"/>
<path d="M76.6252 85.655V86.6835C76.6252 86.8305 76.6042 86.9162 76.5728 86.9652C76.5414 87.0142 76.4575 87.0386 76.3213 87.0386H76.1223H75.9127C75.766 87.0386 75.6717 87.0142 75.6298 86.9529C75.5879 86.904 75.5774 86.7815 75.5774 86.5978V85.6427H75.1059V86.757C75.1059 86.9774 75.1373 87.1366 75.2107 87.2468C75.2735 87.3448 75.3678 87.4182 75.4726 87.4427C75.5774 87.4672 75.7346 87.4795 75.9441 87.4795H76.3318C76.5938 87.4795 76.7928 87.4305 76.9186 87.3448C77.0443 87.2591 77.1072 87.0754 77.1072 86.7815V85.6427L76.6252 85.655Z" fill="url(#paint28_linear_23_3)"/>
<path d="M79.2866 86.4509C79.1923 86.3774 79.0456 86.3407 78.8466 86.3407H78.5322H78.2179H78.1655C78.0922 86.3407 78.0398 86.3284 78.0083 86.304C77.9664 86.2795 77.9455 86.2427 77.9455 86.1693C77.9455 86.1203 77.9664 86.0835 77.9979 86.0713C78.0293 86.0468 78.0712 86.0468 78.1236 86.0468L78.4798 86.0346H78.7104C78.7627 86.0346 78.8151 86.0468 78.8466 86.0713C78.878 86.0958 78.899 86.1448 78.899 86.206H79.36C79.36 86.108 79.36 86.0468 79.3495 85.9856C79.339 85.9244 79.3181 85.8754 79.2866 85.8142C79.2552 85.7529 79.1923 85.704 79.119 85.6795C79.0352 85.655 78.9304 85.6427 78.8047 85.6427H78.4694C78.417 85.6427 78.3017 85.6427 78.1445 85.655C77.9874 85.655 77.8512 85.6795 77.7464 85.704C77.6416 85.7284 77.5787 85.7897 77.5368 85.8754C77.4949 85.9611 77.4844 86.0713 77.4844 86.2305C77.4844 86.4142 77.5159 86.5366 77.5683 86.6223C77.6311 86.708 77.7254 86.7448 77.8721 86.7448L78.6475 86.7693H78.7208C78.8047 86.7693 78.8675 86.7815 78.899 86.8182C78.9304 86.8427 78.9409 86.8795 78.9409 86.9407C78.9409 86.9897 78.9304 87.0386 78.899 87.0631C78.878 87.0876 78.8151 87.0999 78.7313 87.0999L78.417 87.1121H78.1969C78.1236 87.1121 78.0607 87.0999 78.0188 87.0876C77.9769 87.0631 77.9559 87.0264 77.9559 86.9529V86.9284H77.4949V87.0386C77.4949 87.2346 77.5368 87.357 77.6102 87.4182C77.694 87.4795 77.8093 87.5162 77.9769 87.5162L78.2912 87.5284L78.899 87.504C79.0876 87.504 79.2238 87.4672 79.2971 87.3815C79.3809 87.2958 79.4229 87.1611 79.4229 86.9407C79.4229 86.7203 79.3809 86.5244 79.2866 86.4509Z" fill="url(#paint29_linear_23_3)"/>
<path d="M79.6533 85.6427V86.0958H80.3449V87.455H80.8164V86.108H81.5079V85.655H79.6533V85.6427Z" fill="url(#paint30_linear_23_3)"/>
<path d="M63.4858 23.4264C60.2062 23.4264 56.9266 23.4509 53.647 23.4019C52.9241 23.3897 52.4421 23.6468 51.9496 24.259C42.3204 36.0631 32.6807 47.8427 23.0514 59.6223C21.7731 61.1774 20.5053 62.7448 19.1327 64.4223C19.3632 64.4958 19.447 64.5448 19.5204 64.5448C23.722 64.5448 27.9237 64.5693 32.1253 64.5203C32.4502 64.5203 32.8483 64.2264 33.0893 63.9448C34.4514 62.3284 35.7926 60.6999 37.1024 59.0346C37.5005 58.5203 37.9196 58.3488 38.4959 58.3488C43.5673 58.3733 48.6281 58.3611 53.6994 58.3611C54.0138 58.3611 54.3281 58.3978 54.7263 58.4223V64.4958H64.4812V23.4264H63.4858ZM54.6739 37.606V46.8019H47.1402C49.6968 43.6795 52.1277 40.7162 54.6739 37.606Z" fill="url(#paint31_linear_23_3)"/>
<path d="M55.7426 41.8427V46.8019C55.7426 47.4999 55.2606 48.0509 54.6739 48.0509H47.1402C46.7106 48.0509 46.323 47.7448 46.1553 47.2917C45.9877 46.8264 46.0715 46.2999 46.3649 45.9325L49.7283 41.8305H39.0827C35.7717 45.8836 32.4816 49.9121 29.2334 53.8795L23.8373 60.4795C23.0829 61.3978 22.3285 62.3285 21.5531 63.2713C22.8733 63.2713 24.1935 63.2713 25.5138 63.2713C28.0913 63.2713 30.1869 63.2591 32.0939 63.2468C32.1463 63.2223 32.2616 63.1489 32.3454 63.0387C33.8123 61.2999 35.122 59.708 36.3375 58.1652C36.9242 57.4183 37.6158 57.0754 38.5274 57.0754C41.4926 57.0876 44.4684 57.0876 47.2345 57.0876H53.7204C53.9614 57.0876 54.1919 57.0999 54.4329 57.1244C54.5481 57.1366 54.6634 57.1366 54.7996 57.1489C55.3759 57.1856 55.8264 57.7366 55.8264 58.3978V63.2223H63.4334V41.8427H55.7426Z" fill="url(#paint32_linear_23_3)"/>
<path d="M49.1625 42.5162L53.8985 36.7366C54.108 36.4794 54.3909 36.3448 54.6739 36.3448C54.8101 36.3448 54.9463 36.3692 55.072 36.4305C55.4807 36.6264 55.7426 37.0794 55.7426 37.5937V42.5162H63.4229V24.6754C62.5742 24.6754 61.7255 24.6754 60.8873 24.6754C60.0176 24.6754 59.1479 24.6754 58.2887 24.6754C56.4341 24.6754 54.9987 24.6631 53.647 24.6509H53.6156C53.2279 24.6509 53.0288 24.7611 52.7354 25.1162C48.0204 30.8958 43.2634 36.7243 38.5273 42.5039L49.1625 42.5162Z" fill="url(#paint33_linear_23_3)"/>
<path d="M67.8761 19.9733H55.5959C55.8789 19.5693 56.0255 19.3366 56.1932 19.1284C61.1912 13.006 66.1996 6.89579 71.1871 0.748854C71.6377 0.185588 72.0987 -0.0225739 72.7379 0.00191592C74.3096 0.0508955 75.8917 0.0141597 77.6101 0.0141597C77.6101 0.442731 77.6101 0.810078 77.6101 1.17743C77.6101 21.8713 77.5996 42.5652 77.6311 63.2591C77.6311 64.2631 77.4005 64.5448 76.5414 64.5325C73.6914 64.4713 70.8309 64.508 67.8761 64.508V19.9733Z" fill="url(#paint34_linear_23_3)"/>
<path d="M76.5623 63.2836C75.4516 63.2591 74.2257 63.2468 72.7273 63.2468C71.931 63.2468 71.1347 63.2468 70.3384 63.2468C69.8773 63.2468 69.4163 63.2468 68.9553 63.2468V19.9734C68.9553 19.2754 68.4733 18.7244 67.8865 18.7244H58.0268C59.0012 17.5244 59.9862 16.3366 60.9606 15.1366C64.5755 10.7162 68.3161 6.13663 71.9834 1.61826C72.2139 1.33663 72.3606 1.25092 72.675 1.25092H72.7273C73.3246 1.27541 73.9847 1.2754 74.781 1.2754C75.2316 1.2754 75.6926 1.2754 76.1641 1.2754C76.2898 1.2754 76.4261 1.2754 76.5518 1.2754V11.3407C76.5518 28.3611 76.5518 45.957 76.5728 63.2713V63.2836H76.5623Z" fill="url(#paint35_linear_23_3)"/>
<path d="M1.07922 69.2835V76.2876H2.90239V69.2835H1.07922Z" fill="url(#paint36_linear_23_3)"/>
<path d="M10.9599 69.2835V74.5244L7.35551 69.2835H4.45312V76.2876H6.17151V71.0346L9.77592 76.2876H12.6783V69.2835H10.9599Z" fill="url(#paint37_linear_23_3)"/>
<path d="M21.1026 72.3937C20.7568 72.1121 20.191 71.9652 19.4156 71.9652L18.2107 71.9529L16.9952 71.9284H16.8066C16.5447 71.9284 16.3351 71.8917 16.178 71.806C16.0313 71.7203 15.9474 71.5611 15.9474 71.2917C15.9474 71.108 16.0103 70.9733 16.1361 70.8876C16.2618 70.8019 16.419 70.7652 16.6076 70.7652L18.0011 70.7162L18.8813 70.7284C19.1013 70.7284 19.2794 70.7774 19.3947 70.8754C19.5204 70.9733 19.5833 71.1448 19.5833 71.3897H21.3645C21.3645 71.0346 21.3436 70.7529 21.3122 70.557C21.2807 70.3488 21.1969 70.1284 21.0607 69.8713C20.935 69.6142 20.7149 69.4427 20.4006 69.357C20.0862 69.2713 19.6776 69.2101 19.1747 69.2101L17.8963 69.1856C17.6763 69.1856 17.2572 69.1978 16.639 69.2223C16.0103 69.2468 15.5074 69.308 15.1197 69.4305C14.732 69.5407 14.4701 69.7611 14.3234 70.0795C14.1767 70.3978 14.1033 70.8509 14.1033 71.4386C14.1033 72.1244 14.2186 72.6386 14.4491 72.9693C14.6796 73.2999 15.0778 73.4713 15.6436 73.4713L18.6403 73.5448H18.9337C19.2585 73.5448 19.489 73.606 19.6043 73.7162C19.7195 73.8264 19.7824 73.9733 19.7824 74.1693C19.7824 74.3774 19.73 74.5366 19.6252 74.6346C19.5204 74.7325 19.3004 74.7815 18.9651 74.7815L17.7497 74.8182L16.8905 74.806C16.5971 74.806 16.3666 74.7693 16.1989 74.6958C16.0313 74.6223 15.9474 74.4386 15.9474 74.157L15.937 74.0468H14.1452V74.4631C14.1452 75.2101 14.3024 75.6999 14.6063 75.9448C14.9101 76.1897 15.3816 76.3121 16.0313 76.3121L17.2572 76.3366L19.5938 76.2631C20.3168 76.2631 20.8406 76.1162 21.155 75.7978C21.4693 75.4917 21.6265 74.9284 21.6265 74.0958C21.6265 73.2631 21.4588 72.6876 21.1026 72.3937Z" fill="url(#paint38_linear_23_3)"/>
<path d="M22.5171 69.2835V71.0346H25.189V76.2754H27.0121V71.0346H29.684V69.2835H22.5171Z" fill="url(#paint39_linear_23_3)"/>
<path d="M36.0232 69.2835H33.5608L30.2184 76.2876H32.2301L32.8169 75.0142H36.7147L37.2805 76.2876H39.2818L36.0232 69.2835ZM33.477 73.557L34.7972 70.6182L36.0965 73.557H33.477Z" fill="url(#paint40_linear_23_3)"/>
<path d="M42.1947 74.5244V69.2835H40.3715V76.2876H46.3335V74.5366H42.1947V74.5244Z" fill="url(#paint41_linear_23_3)"/>
<path d="M49.173 74.5244V69.2835H47.3498V76.2876H53.3117V74.5366H49.173V74.5244Z" fill="url(#paint42_linear_23_3)"/>
<path d="M59.6509 69.2835H57.1886L53.8566 76.2876H55.8684L56.4552 75.0142H60.353L60.9188 76.2876H62.92L59.6509 69.2835ZM57.0943 73.557L58.4145 70.6182L59.7033 73.557H57.0943Z" fill="url(#paint43_linear_23_3)"/>
<path d="M63.4439 69.2835V71.0346H66.1158V76.2754H67.9389V71.0346H70.6003V69.2835H63.4439Z" fill="url(#paint44_linear_23_3)"/>
<path d="M71.6272 69.2835V76.2876H73.4504V69.2835H71.6272Z" fill="url(#paint45_linear_23_3)"/>
<path d="M82.5138 69.8345C82.1261 69.4182 81.3927 69.2101 80.3239 69.2101L78.8675 69.1978L77.5787 69.2345C76.4156 69.2345 75.6717 69.455 75.3574 69.8835C75.043 70.3243 74.8859 71.255 74.8859 72.6754L74.9068 73.9611C74.9068 74.7815 75.0954 75.3692 75.4726 75.7366C75.8498 76.1039 76.3842 76.2876 77.0758 76.2876L78.3121 76.3366L78.8884 76.3243L80.261 76.2999C81.5184 76.2999 82.3147 76.055 82.6186 75.5652C82.9329 75.0754 83.0901 74.0958 83.0901 72.6386V72.308C83.1006 71.0713 82.912 70.2509 82.5138 69.8345ZM81.246 73.459C81.246 73.9733 81.1307 74.2917 80.9107 74.4264C80.6906 74.5611 80.3134 74.6223 79.8 74.6223L78.8675 74.6345L77.893 74.6101C77.3796 74.6101 77.0653 74.4999 76.9395 74.2672C76.8138 74.0468 76.7509 73.606 76.7509 72.957V72.4794C76.7509 72.2713 76.7719 72.0019 76.8033 71.6835C76.8348 71.3652 76.9605 71.157 77.1805 71.059C77.3901 70.9611 77.7044 70.9121 78.1235 70.9121L79.9362 70.8999C80.1667 70.8999 80.3763 70.9121 80.5754 70.9488C80.7745 70.9856 80.9316 71.059 81.0259 71.1692C81.1307 71.2794 81.1936 71.4509 81.225 71.6713C81.2565 71.9039 81.2774 72.1733 81.2774 72.5039L81.246 73.459Z" fill="url(#paint46_linear_23_3)"/>
<path d="M91.0428 69.2835V74.5244L87.4384 69.2835H84.536V76.2876H86.2544V71.0346L89.8588 76.2876H92.7612V69.2835H91.0428Z" fill="url(#paint47_linear_23_3)"/>
<path d="M28.8772 80.8427C28.7095 80.708 28.4371 80.6346 28.0704 80.6346H27.4941L26.9073 80.6223H26.813C26.6873 80.6223 26.593 80.5978 26.5092 80.5611C26.4358 80.5244 26.4044 80.4387 26.4044 80.3162C26.4044 80.2305 26.4358 80.157 26.4987 80.1203C26.5616 80.0835 26.6349 80.0591 26.7187 80.0591L27.3893 80.0346H27.8084C27.9132 80.0346 27.997 80.0591 28.0599 80.108C28.1228 80.157 28.1437 80.2305 28.1437 80.3529H28.9924C28.9924 80.1815 28.982 80.0468 28.9715 79.9489C28.9505 79.8509 28.9191 79.7407 28.8562 79.6182C28.7934 79.4958 28.6886 79.4101 28.5419 79.3733C28.3952 79.3244 28.1961 79.2999 27.9551 79.2999L27.3474 79.2876C27.2426 79.2876 27.0436 79.2876 26.7397 79.2999C26.4358 79.3121 26.1948 79.3366 26.0167 79.3978C25.8281 79.4591 25.7024 79.557 25.6395 79.7162C25.5662 79.8754 25.5347 80.0835 25.5347 80.3652C25.5347 80.6958 25.5871 80.9407 25.7024 81.0999C25.8072 81.2591 26.0062 81.3448 26.2682 81.3448L27.7037 81.3815H27.8504C28.0075 81.3815 28.1123 81.406 28.1647 81.4672C28.2171 81.5284 28.2485 81.5897 28.2485 81.6876C28.2485 81.7856 28.2276 81.8591 28.1752 81.908C28.1228 81.957 28.018 81.9815 27.8608 81.9815L27.2741 82.006H26.8654C26.7292 82.006 26.614 81.9937 26.5406 81.957C26.4673 81.9203 26.4254 81.8346 26.4254 81.6999V81.6387H25.5662V81.8346C25.5662 82.1897 25.6395 82.4223 25.7862 82.5448C25.9329 82.6672 26.1634 82.7162 26.4673 82.7162L27.054 82.7284L28.1647 82.6917C28.5105 82.6917 28.7619 82.6182 28.9086 82.4713C29.0553 82.3244 29.1287 82.055 29.1287 81.6631C29.1287 81.2713 29.0448 80.9774 28.8772 80.8427Z" fill="black"/>
<path d="M33.0055 80.1203V79.3611H29.8098V82.704H33.0055V81.9448H30.6794V81.357H32.8484V80.6958H30.6794V80.1203H33.0055Z" fill="black"/>
<path d="M37.1653 81.0754C37.2072 81.0019 37.2386 80.9039 37.2491 80.7937C37.2596 80.6835 37.27 80.5611 37.27 80.4019C37.27 80.0101 37.1967 79.7284 37.05 79.5815C36.9033 79.4223 36.6518 79.3488 36.3165 79.3488H33.6552V82.6917H34.5248V81.8346H35.9813C36.1803 81.8346 36.2956 81.8835 36.3165 81.9815C36.3375 82.0795 36.3585 82.2142 36.3585 82.3733V82.6917H37.2386V82.055C37.2386 81.8346 37.1862 81.6754 37.0919 81.5897C36.9976 81.5039 36.8509 81.4427 36.6518 81.406C36.8404 81.3325 36.9557 81.2835 37.0081 81.2468C37.071 81.2101 37.1234 81.1489 37.1653 81.0754ZM36.327 80.9407C36.2746 81.0019 36.1594 81.0264 35.9603 81.0264H34.5353V80.1693H35.9708C36.0232 80.1693 36.0651 80.1693 36.107 80.1693C36.1489 80.1693 36.1908 80.1815 36.2537 80.206C36.3166 80.2305 36.348 80.2672 36.3689 80.3162C36.3899 80.3652 36.4004 80.4509 36.4004 80.5611C36.3899 80.757 36.3689 80.8917 36.327 80.9407Z" fill="black"/>
<path d="M40.9792 79.3488L39.8057 81.8713L38.6846 79.3488H37.7311L39.2399 82.6917H40.3506L41.9537 79.3488H40.9792Z" fill="black"/>
<path d="M42.4357 79.3488V82.6917H43.3053V79.3488H42.4357Z" fill="black"/>
<path d="M47.6641 81.4305H46.805C46.805 81.6387 46.7735 81.7734 46.6897 81.8223C46.6164 81.8836 46.4906 81.9081 46.3125 81.9081H45.8619L45.5266 81.8958C45.2333 81.8958 45.0447 81.8346 44.9818 81.7366C44.9084 81.6264 44.877 81.3938 44.877 81.0264C44.877 80.6591 44.9084 80.4387 44.9608 80.3285C45.0237 80.2183 45.1809 80.157 45.4428 80.157H45.8829H46.1239H46.3649C46.5011 80.157 46.6059 80.1815 46.6687 80.2305C46.7316 80.2795 46.763 80.3774 46.763 80.5366H47.6118C47.6118 80.1938 47.5594 79.9244 47.4755 79.7162C47.3812 79.5203 47.2241 79.4101 47.004 79.3734C46.784 79.3489 46.5954 79.3366 46.4382 79.3244C46.2811 79.3244 46.0925 79.3121 45.8515 79.3121L45.0342 79.3366C44.6151 79.3366 44.3322 79.4591 44.1959 79.7162C44.0597 79.9734 43.9864 80.3774 43.9864 80.9285L44.0073 81.6264C44.0073 81.9938 44.0912 82.2754 44.2588 82.4468C44.4265 82.6183 44.7932 82.7162 45.3695 82.7162L45.9143 82.7285L46.5744 82.7162C47.004 82.7162 47.2869 82.6427 47.4336 82.4836C47.5803 82.3366 47.6537 82.0183 47.6537 81.5652L47.6641 81.4305Z" fill="black"/>
<path d="M51.541 80.1203V79.3611H48.3452V82.704H51.541V81.9448H49.2149V81.357H51.3838V80.6958H49.2149V80.1203H51.541Z" fill="black"/>
<path d="M55.4702 80.8427C55.3026 80.708 55.0301 80.6346 54.6634 80.6346H54.0871L53.5004 80.6223H53.4061C53.2803 80.6223 53.1755 80.5978 53.1127 80.5611C53.0393 80.5244 53.0079 80.4387 53.0079 80.3162C53.0079 80.2305 53.0393 80.157 53.1022 80.1203C53.1651 80.0835 53.2384 80.0591 53.3327 80.0591L53.9928 80.0346H54.4119C54.5167 80.0346 54.6005 80.0591 54.6529 80.108C54.7053 80.157 54.7368 80.2305 54.7368 80.3529H55.5959C55.5959 80.1815 55.5855 80.0468 55.575 79.9489C55.554 79.8509 55.5226 79.7407 55.4597 79.6182C55.3969 79.4958 55.2921 79.4101 55.1454 79.3733C54.9987 79.3244 54.7996 79.2999 54.5586 79.2999L53.9509 79.2876C53.8461 79.2876 53.647 79.2876 53.3432 79.2999C53.0498 79.3121 52.7983 79.3366 52.6202 79.3978C52.4316 79.4591 52.3059 79.557 52.2325 79.7162C52.1592 79.8754 52.1277 80.0835 52.1277 80.3652C52.1277 80.6958 52.1801 80.9407 52.2954 81.0999C52.4002 81.2591 52.5993 81.3448 52.8612 81.3448L54.2967 81.3815H54.4329C54.5901 81.3815 54.6948 81.406 54.7577 81.4672C54.8101 81.5162 54.8415 81.5897 54.8415 81.6876C54.8415 81.7856 54.8206 81.8591 54.7682 81.908C54.7158 81.957 54.611 81.9815 54.4539 81.9815L53.8671 82.006H53.4584C53.3222 82.006 53.207 81.9937 53.1336 81.957C53.0603 81.9203 53.0184 81.8346 53.0184 81.6999V81.6387H52.1592V81.8346C52.1592 82.1897 52.2325 82.4223 52.3792 82.5448C52.5259 82.6672 52.7564 82.7162 53.0603 82.7162L53.647 82.7284L54.7682 82.6917C55.114 82.6917 55.3654 82.6182 55.5121 82.4713C55.6588 82.3244 55.7426 82.055 55.7426 81.6631C55.7426 81.2713 55.6379 80.9774 55.4702 80.8427Z" fill="black"/>
<path d="M58.3517 81.8591V79.3488H57.482V82.6917H60.332V81.8591H58.3517Z" fill="black"/>
<path d="M60.552 79.3488V80.1815H61.8303V82.6917H62.7V80.1815H63.9783V79.3488H60.552Z" fill="black"/>
<path d="M68.0332 79.655C67.8551 79.4591 67.5093 79.3488 66.9854 79.3488H64.4603V82.6917H67.3103C67.5617 82.6917 67.7818 82.6182 67.9494 82.4713C68.1171 82.3244 68.2218 82.1529 68.2428 81.957C68.2742 81.7611 68.2847 81.6264 68.2952 81.5652C68.2952 81.504 68.3057 81.3937 68.3057 81.2346V80.8427C68.2952 80.255 68.2114 79.8509 68.0332 79.655ZM67.415 81.0386C67.415 81.3693 67.3836 81.5897 67.3103 81.6999C67.2369 81.8223 67.0693 81.8713 66.8073 81.8713H65.3404V80.1693H66.8178C67.0902 80.1693 67.2579 80.2305 67.3207 80.3407C67.3836 80.4509 67.415 80.6713 67.415 81.0019V81.0386Z" fill="black"/>
<path d="M10.7504 86.2305H0.188599V86.855H10.7504V86.2305Z" fill="url(#paint48_linear_23_3)"/>
<path d="M93.7252 86.2305H83.1635V86.855H93.7252V86.2305Z" fill="url(#paint49_linear_23_3)"/>
<path d="M24.1831 80.6713H0V80.8795H24.1831V80.6713Z" fill="#0066FF"/>
<path d="M93.7252 80.6713H69.6888V80.8795H93.7252V80.6713Z" fill="#0065FF"/>
<defs>
<linearGradient id="paint0_linear_23_3" x1="46.8673" y1="80.9382" x2="46.8673" y2="88.0256" gradientUnits="userSpaceOnUse">
<stop stop-color="white"/>
<stop offset="1"/>
</linearGradient>
<linearGradient id="paint1_linear_23_3" x1="13.1535" y1="86.446" x2="13.1535" y2="90.8995" gradientUnits="userSpaceOnUse">
<stop stop-color="white"/>
<stop offset="1"/>
</linearGradient>
<linearGradient id="paint2_linear_23_3" x1="15.3512" y1="86.446" x2="15.3512" y2="90.8995" gradientUnits="userSpaceOnUse">
<stop stop-color="white"/>
<stop offset="1"/>
</linearGradient>
<linearGradient id="paint3_linear_23_3" x1="17.6307" y1="86.446" x2="17.6307" y2="90.8995" gradientUnits="userSpaceOnUse">
<stop stop-color="white"/>
<stop offset="1"/>
</linearGradient>
<linearGradient id="paint4_linear_23_3" x1="20.4755" y1="86.446" x2="20.4755" y2="90.8995" gradientUnits="userSpaceOnUse">
<stop stop-color="white"/>
<stop offset="1"/>
</linearGradient>
<linearGradient id="paint5_linear_23_3" x1="22.8676" y1="86.446" x2="22.8676" y2="90.8995" gradientUnits="userSpaceOnUse">
<stop stop-color="white"/>
<stop offset="1"/>
</linearGradient>
<linearGradient id="paint6_linear_23_3" x1="25.0795" y1="86.446" x2="25.0795" y2="90.8995" gradientUnits="userSpaceOnUse">
<stop stop-color="white"/>
<stop offset="1"/>
</linearGradient>
<linearGradient id="paint7_linear_23_3" x1="27.1243" y1="86.446" x2="27.1243" y2="90.8995" gradientUnits="userSpaceOnUse">
<stop stop-color="white"/>
<stop offset="1"/>
</linearGradient>
<linearGradient id="paint8_linear_23_3" x1="28.3937" y1="86.446" x2="28.3937" y2="90.8995" gradientUnits="userSpaceOnUse">
<stop stop-color="white"/>
<stop offset="1"/>
</linearGradient>
<linearGradient id="paint9_linear_23_3" x1="30.0869" y1="86.446" x2="30.0869" y2="90.8995" gradientUnits="userSpaceOnUse">
<stop stop-color="white"/>
<stop offset="1"/>
</linearGradient>
<linearGradient id="paint10_linear_23_3" x1="32.6021" y1="86.446" x2="32.6021" y2="90.8995" gradientUnits="userSpaceOnUse">
<stop stop-color="white"/>
<stop offset="1"/>
</linearGradient>
<linearGradient id="paint11_linear_23_3" x1="35.0356" y1="86.446" x2="35.0356" y2="90.9007" gradientUnits="userSpaceOnUse">
<stop stop-color="white"/>
<stop offset="1"/>
</linearGradient>
<linearGradient id="paint12_linear_23_3" x1="37.259" y1="86.446" x2="37.259" y2="90.8995" gradientUnits="userSpaceOnUse">
<stop stop-color="white"/>
<stop offset="1"/>
</linearGradient>
<linearGradient id="paint13_linear_23_3" x1="39.9184" y1="86.446" x2="39.9184" y2="90.8995" gradientUnits="userSpaceOnUse">
<stop stop-color="white"/>
<stop offset="1"/>
</linearGradient>
<linearGradient id="paint14_linear_23_3" x1="42.157" y1="86.446" x2="42.157" y2="90.8995" gradientUnits="userSpaceOnUse">
<stop stop-color="white"/>
<stop offset="1"/>
</linearGradient>
<linearGradient id="paint15_linear_23_3" x1="44.5286" y1="86.446" x2="44.5286" y2="90.8995" gradientUnits="userSpaceOnUse">
<stop stop-color="white"/>
<stop offset="1"/>
</linearGradient>
<linearGradient id="paint16_linear_23_3" x1="46.6651" y1="86.446" x2="46.6651" y2="90.8995" gradientUnits="userSpaceOnUse">
<stop stop-color="white"/>
<stop offset="1"/>
</linearGradient>
<linearGradient id="paint17_linear_23_3" x1="48.8602" y1="86.446" x2="48.8602" y2="90.8995" gradientUnits="userSpaceOnUse">
<stop stop-color="white"/>
<stop offset="1"/>
</linearGradient>
<linearGradient id="paint18_linear_23_3" x1="51.0145" y1="86.446" x2="51.0145" y2="90.8995" gradientUnits="userSpaceOnUse">
<stop stop-color="white"/>
<stop offset="1"/>
</linearGradient>
<linearGradient id="paint19_linear_23_3" x1="53.1483" y1="86.446" x2="53.1483" y2="90.8995" gradientUnits="userSpaceOnUse">
<stop stop-color="white"/>
<stop offset="1"/>
</linearGradient>
<linearGradient id="paint20_linear_23_3" x1="56.0361" y1="86.446" x2="56.0361" y2="90.8995" gradientUnits="userSpaceOnUse">
<stop stop-color="white"/>
<stop offset="1"/>
</linearGradient>
<linearGradient id="paint21_linear_23_3" x1="58.4334" y1="86.446" x2="58.4334" y2="90.9019" gradientUnits="userSpaceOnUse">
<stop stop-color="white"/>
<stop offset="1"/>
</linearGradient>
<linearGradient id="paint22_linear_23_3" x1="60.8611" y1="86.446" x2="60.8611" y2="90.9007" gradientUnits="userSpaceOnUse">
<stop stop-color="white"/>
<stop offset="1"/>
</linearGradient>
<linearGradient id="paint23_linear_23_3" x1="63.807" y1="86.446" x2="63.807" y2="90.9007" gradientUnits="userSpaceOnUse">
<stop stop-color="white"/>
<stop offset="1"/>
</linearGradient>
<linearGradient id="paint24_linear_23_3" x1="66.217" y1="86.446" x2="66.217" y2="90.8995" gradientUnits="userSpaceOnUse">
<stop stop-color="white"/>
<stop offset="1"/>
</linearGradient>
<linearGradient id="paint25_linear_23_3" x1="68.7332" y1="86.446" x2="68.7332" y2="90.8995" gradientUnits="userSpaceOnUse">
<stop stop-color="white"/>
<stop offset="1"/>
</linearGradient>
<linearGradient id="paint26_linear_23_3" x1="71.5712" y1="86.446" x2="71.5712" y2="90.8995" gradientUnits="userSpaceOnUse">
<stop stop-color="white"/>
<stop offset="1"/>
</linearGradient>
<linearGradient id="paint27_linear_23_3" x1="73.7454" y1="86.446" x2="73.7454" y2="90.8995" gradientUnits="userSpaceOnUse">
<stop stop-color="white"/>
<stop offset="1"/>
</linearGradient>
<linearGradient id="paint28_linear_23_3" x1="76.1076" y1="86.446" x2="76.1076" y2="90.9007" gradientUnits="userSpaceOnUse">
<stop stop-color="white"/>
<stop offset="1"/>
</linearGradient>
<linearGradient id="paint29_linear_23_3" x1="78.45" y1="86.446" x2="78.45" y2="90.8995" gradientUnits="userSpaceOnUse">
<stop stop-color="white"/>
<stop offset="1"/>
</linearGradient>
<linearGradient id="paint30_linear_23_3" x1="80.5811" y1="86.446" x2="80.5811" y2="90.8995" gradientUnits="userSpaceOnUse">
<stop stop-color="white"/>
<stop offset="1"/>
</linearGradient>
<linearGradient id="paint31_linear_23_3" x1="41.818" y1="69.3484" x2="41.818" y2="20.6297" gradientUnits="userSpaceOnUse">
<stop stop-color="white"/>
<stop offset="0.96" stop-color="#090909"/>
<stop offset="1"/>
</linearGradient>
<linearGradient id="paint32_linear_23_3" x1="42.4865" y1="62.7387" x2="42.4865" y2="13.2913" gradientUnits="userSpaceOnUse">
<stop stop-color="white"/>
<stop offset="1"/>
</linearGradient>
<linearGradient id="paint33_linear_23_3" x1="50.9767" y1="46.6464" x2="50.9767" y2="-1.06341" gradientUnits="userSpaceOnUse">
<stop stop-color="white"/>
<stop offset="1"/>
</linearGradient>
<linearGradient id="paint34_linear_23_3" x1="92.3998" y1="65.3553" x2="28.3727" y2="-13.574" gradientUnits="userSpaceOnUse">
<stop stop-color="white"/>
<stop offset="0.96" stop-color="#090909"/>
<stop offset="1"/>
</linearGradient>
<linearGradient id="paint35_linear_23_3" x1="76.3807" y1="35.6608" x2="33.5512" y2="6.37357" gradientUnits="userSpaceOnUse">
<stop stop-color="white"/>
<stop offset="1"/>
</linearGradient>
<linearGradient id="paint36_linear_23_3" x1="1.98923" y1="75.3827" x2="1.98923" y2="62.0419" gradientUnits="userSpaceOnUse">
<stop stop-color="white"/>
<stop offset="1"/>
</linearGradient>
<linearGradient id="paint37_linear_23_3" x1="8.56624" y1="75.3827" x2="8.56624" y2="62.0419" gradientUnits="userSpaceOnUse">
<stop stop-color="white"/>
<stop offset="1"/>
</linearGradient>
<linearGradient id="paint38_linear_23_3" x1="17.8712" y1="75.3827" x2="17.8712" y2="62.0431" gradientUnits="userSpaceOnUse">
<stop stop-color="white"/>
<stop offset="1"/>
</linearGradient>
<linearGradient id="paint39_linear_23_3" x1="26.099" y1="75.3827" x2="26.099" y2="62.0419" gradientUnits="userSpaceOnUse">
<stop stop-color="white"/>
<stop offset="1"/>
</linearGradient>
<linearGradient id="paint40_linear_23_3" x1="34.7611" y1="75.3827" x2="34.7611" y2="62.0419" gradientUnits="userSpaceOnUse">
<stop stop-color="white"/>
<stop offset="1"/>
</linearGradient>
<linearGradient id="paint41_linear_23_3" x1="43.3541" y1="75.3827" x2="43.3541" y2="62.0419" gradientUnits="userSpaceOnUse">
<stop stop-color="white"/>
<stop offset="1"/>
</linearGradient>
<linearGradient id="paint42_linear_23_3" x1="50.3281" y1="75.3827" x2="50.3281" y2="62.0419" gradientUnits="userSpaceOnUse">
<stop stop-color="white"/>
<stop offset="1"/>
</linearGradient>
<linearGradient id="paint43_linear_23_3" x1="58.3821" y1="75.3827" x2="58.3821" y2="62.0419" gradientUnits="userSpaceOnUse">
<stop stop-color="white"/>
<stop offset="1"/>
</linearGradient>
<linearGradient id="paint44_linear_23_3" x1="67.0268" y1="75.3827" x2="67.0268" y2="62.0419" gradientUnits="userSpaceOnUse">
<stop stop-color="white"/>
<stop offset="1"/>
</linearGradient>
<linearGradient id="paint45_linear_23_3" x1="72.5435" y1="75.3827" x2="72.5435" y2="62.0419" gradientUnits="userSpaceOnUse">
<stop stop-color="white"/>
<stop offset="1"/>
</linearGradient>
<linearGradient id="paint46_linear_23_3" x1="79.0021" y1="75.3827" x2="79.0021" y2="62.0419" gradientUnits="userSpaceOnUse">
<stop stop-color="white"/>
<stop offset="1"/>
</linearGradient>
<linearGradient id="paint47_linear_23_3" x1="88.6444" y1="75.3827" x2="88.6444" y2="62.0419" gradientUnits="userSpaceOnUse">
<stop stop-color="white"/>
<stop offset="1"/>
</linearGradient>
<linearGradient id="paint48_linear_23_3" x1="5.46791" y1="87.0203" x2="5.46791" y2="78.9742" gradientUnits="userSpaceOnUse">
<stop stop-color="white"/>
<stop offset="1"/>
</linearGradient>
<linearGradient id="paint49_linear_23_3" x1="88.447" y1="87.0203" x2="88.447" y2="78.9742" gradientUnits="userSpaceOnUse">
<stop stop-color="white"/>
<stop offset="1"/>
</linearGradient>
</defs>
</svg>
