<svg width="85" height="72" viewBox="0 0 85 72" fill="none" xmlns="http://www.w3.org/2000/svg">
<g clip-path="url(#clip0_48_10)">
<path d="M76.3347 12.0001C76.0129 11.972 75.6885 11.972 75.3667 12.0001H9.25555C8.83184 12.0056 8.41093 12.0594 8.00417 12.1601L42.1222 40.9401L76.3347 12.0001Z" fill="white"/>
<path d="M79.8292 14.78L45.4514 43.78C44.5666 44.525 43.3698 44.9432 42.1222 44.9432C40.8747 44.9432 39.6778 44.525 38.7931 43.78L4.72222 15C4.61748 15.3261 4.56195 15.6621 4.55695 16V56C4.55695 57.0609 5.05446 58.0783 5.94005 58.8285C6.82564 59.5786 8.02676 60 9.27917 60H75.3903C76.6427 60 77.8438 59.5786 78.7294 58.8285C79.615 58.0783 80.1125 57.0609 80.1125 56V16C80.0937 15.5833 79.9981 15.1717 79.8292 14.78ZM12.5139 56H9.23195V53.14L26.3972 38.72L29.7264 41.54L12.5139 56ZM75.3431 56H72.0375L54.825 41.54L58.1542 38.72L75.3194 53.14L75.3431 56Z" fill="white"/>
</g>
<defs>
<clipPath id="clip0_48_10">
<rect width="85" height="72" fill="white"/>
</clipPath>
</defs>
</svg>
