<svg width="65" height="65" viewBox="0 0 65 65" fill="none" xmlns="http://www.w3.org/2000/svg">
<path d="M13.4458 28.2146C18.5458 38.2375 26.7625 46.4187 36.7854 51.5542L44.5771 43.7625C45.5333 42.8063 46.95 42.4875 48.1896 42.9125C52.1563 44.2229 56.4417 44.9313 60.8333 44.9313C62.7812 44.9313 64.375 46.525 64.375 48.4729V60.8333C64.375 62.7812 62.7812 64.375 60.8333 64.375C27.5771 64.375 0.625 37.4229 0.625 4.16667C0.625 2.21875 2.21875 0.625 4.16667 0.625H16.5625C18.5104 0.625 20.1042 2.21875 20.1042 4.16667C20.1042 8.59375 20.8125 12.8438 22.1229 16.8104C22.5125 18.05 22.2292 19.4313 21.2375 20.4229L13.4458 28.2146Z" fill="white"/>
</svg>
